<svg id="Layer_1" data-name="Layer 1" xmlns="http://www.w3.org/2000/svg" xmlns:xlink="http://www.w3.org/1999/xlink" viewBox="0 0 3245.29 1062.2"><defs><style>.cls-1{fill:none;}.cls-2{fill:#b4b4b4;}.cls-3{opacity:0.6;}.cls-4{clip-path:url(#clip-path);}.cls-5{fill:#010101;}.cls-6{opacity:0.45;}.cls-7{clip-path:url(#clip-path-2);}.cls-8{fill:#c2c3c4;}.cls-9{opacity:0.8;}.cls-10{clip-path:url(#clip-path-3);}.cls-11{clip-path:url(#clip-path-4);}.cls-12{fill:#bababa;}.cls-13{clip-path:url(#clip-path-5);}</style><clipPath id="clip-path" transform="translate(-40.93 -41.27)"><rect class="cls-1" x="40.93" y="434" width="652.03" height="340.95"/></clipPath><clipPath id="clip-path-2" transform="translate(-40.93 -41.27)"><rect class="cls-1" x="40.93" y="41.27" width="326.08" height="733.68"/></clipPath><clipPath id="clip-path-3" transform="translate(-40.93 -41.27)"><rect class="cls-1" x="367.01" y="41.27" width="326.08" height="733.68"/></clipPath><clipPath id="clip-path-4" transform="translate(-40.93 -41.27)"><rect class="cls-1" x="40.93" y="644.08" width="326.08" height="459.38"/></clipPath><clipPath id="clip-path-5" transform="translate(-40.93 -41.27)"><rect class="cls-1" x="367.01" y="644.08" width="326.21" height="459.38"/></clipPath></defs><title>ethereum</title><path class="cls-2" d="M1012.37,666.45a10.13,10.13,0,0,1-10.13,10H807.16c4.87,48.19,41.14,92.16,92.16,92.16,34.86,0,60.75-13.33,80.23-41.15,2.82-3.84,7.05-6.28,12.44-4a9.39,9.39,0,0,1,5.51,7,9.89,9.89,0,0,1-1.28,6.79c-19.61,34.22-58.71,51-97,51-65.63,0-112.41-58.71-112.41-121.52s46.78-121.51,112.41-121.51,113,58.45,113.18,121.13M991.47,657c-4.23-48.19-41.14-92.15-92.15-92.15S812,608.77,807.16,657Zm257.64-106.89a9.9,9.9,0,0,1,9.74,9.74,9.5,9.5,0,0,1-9.74,9.74h-52.3V774.76a9.74,9.74,0,0,1-19.48,0V569.55h-50.25a9.5,9.5,0,0,1-9.74-9.74,10,10,0,0,1,9.74-9.74h50.25V475c0-4.74,3.2-9.1,7.82-9.87,6.54-1,11.66,3.47,11.66,9.62v75.37Zm319,99.2V773.6a9.91,9.91,0,0,1-9.74,9.75,9.5,9.5,0,0,1-9.74-9.75V649.27c0-41.91-23.72-83.82-70.5-83.82-60,0-85.88,52.42-82.42,106.13,0,1.41.64,7.69.64,8.33v93.31c0,4.74-3.2,9.1-7.82,9.87-6.53,1-11.66-3.46-11.66-9.61V365.11a9.74,9.74,0,0,1,19.48,0v231.1c16.79-30,46.79-50.25,81.65-50.25,57.3,0,90.11,50.25,90.11,103.31m349.79,17.18a10.12,10.12,0,0,1-10.12,10H1712.59c4.88,48.19,41.15,92.16,92.16,92.16,34.87,0,60.76-13.33,80.24-41.15,2.82-3.84,7-6.28,12.43-4a9.41,9.41,0,0,1,5.52,7,9.83,9.83,0,0,1-1.29,6.79c-19.61,34.22-58.7,51-97,51-65.63,0-112.42-58.71-112.42-121.52S1739,545.32,1804.63,545.32s113.17,58.45,113.3,121.13m-21-9.49c-4.23-48.19-41.14-92.15-92.16-92.15s-87.28,44-92.16,92.15Zm260.46-97.79c0,6.28-3.46,9.74-9.1,10.51-57.3,8.33-83.06,55.11-83.06,109.59v93.31c0,4.74-3.21,9.1-7.82,9.87-6.54,1-11.67-3.46-11.67-9.61V560.19c0-4.74,3.21-9.1,7.82-9.87,6.54-1,11.67,3.46,11.67,9.61v43.33c16-27.17,48.19-53.07,81.65-53.07,4.87-.12,10.51,3.46,10.51,9m320.44,107.28a10.13,10.13,0,0,1-10.13,10H2272.6c4.87,48.19,41.14,92.16,92.16,92.16,34.86,0,60.75-13.33,80.23-41.15,2.82-3.84,7.05-6.28,12.44-4a9.37,9.37,0,0,1,5.51,7,9.89,9.89,0,0,1-1.28,6.79c-19.61,34.22-58.71,51-97,51-65.63,0-112.41-58.71-112.41-121.52S2299,545.32,2364.63,545.32s113,58.45,113.18,121.13m-20.9-9.49c-4.23-48.19-41.14-92.15-92.15-92.15s-87.29,44-92.16,92.15Zm335.83-95.36V774.76a9.9,9.9,0,0,1-9.74,9.74,9.51,9.51,0,0,1-9.75-9.74V734.25c-16,32.18-44.73,55.12-81,55.12-57.94,0-90.11-50.24-90.11-103.31v-125a9.74,9.74,0,1,1,19.48,0v125c0,41.91,23.71,83.83,70.5,83.83,65.62,0,81-61.4,81-129.2v-79.6c0-5.64,5.64-11.41,12.56-9.36a10.48,10.48,0,0,1,7,9.87m493.48,86.9v125a9.9,9.9,0,0,1-9.75,9.74,9.5,9.5,0,0,1-9.74-9.74v-125c0-41.91-23.71-83-70.49-83-58.71,0-81,62.8-81,111.64v96.39a9.9,9.9,0,0,1-9.74,9.74,9.5,9.5,0,0,1-9.74-9.74v-125c0-41.91-23.72-83-70.5-83-59.35,0-83.83,46.78-81.65,108.95,0,1.41.64,4.23,0,4.87v94a9.81,9.81,0,0,1-7.95,9.87c-6.53,1-11.66-3.46-11.66-9.61V560.19c0-4.74,3.2-9.1,7.82-9.87,6.54-1,11.66,3.46,11.66,9.61v35.64c16.79-30,46.79-49.61,81.65-49.61,39.74,0,70.5,25.13,83.06,62.17,16-36.27,47.42-62.17,87.93-62.17,57.29,0,90.11,49.48,90.11,102.54" transform="translate(-40.93 -41.27)"/><g class="cls-3"><g class="cls-4"><path class="cls-5" d="M367,434,40.93,582.3,367,775,693,582.3Z" transform="translate(-40.93 -41.27)"/></g></g><g class="cls-6"><g class="cls-7"><path class="cls-8" d="M40.93,582.3,367,775V41.27Z" transform="translate(-40.93 -41.27)"/></g></g><g class="cls-9"><g class="cls-10"><path class="cls-2" d="M367,41.27V775L693,582.3Z" transform="translate(-40.93 -41.27)"/></g></g><g class="cls-6"><g class="cls-11"><path class="cls-12" d="M40.93,644.08,367,1103.47V836.73Z" transform="translate(-40.93 -41.27)"/></g></g><g class="cls-9"><g class="cls-13"><path class="cls-2" d="M367,836.73v266.74L693.22,644.08Z" transform="translate(-40.93 -41.27)"/></g></g></svg>