<!DOCTYPE svg PUBLIC "-//W3C//DTD SVG 20010904//EN" "http://www.w3.org/TR/2001/REC-SVG-20010904/DTD/svg10.dtd">
<svg version="1.0" xmlns="http://www.w3.org/2000/svg" width="48px" height="48px" viewBox="0 0 480 480" preserveAspectRatio="xMidYMid meet">
<g id="layer101" fill="#ffffff" stroke="none">
 <path d="M80 240 l0 -200 160 0 160 0 0 200 0 200 -160 0 -160 0 0 -200z m260 120 c0 -19 -7 -20 -100 -20 -93 0 -100 1 -100 20 0 19 7 20 100 20 93 0 100 -1 100 -20z m0 -80 c0 -19 -7 -20 -100 -20 -93 0 -100 1 -100 20 0 19 7 20 100 20 93 0 100 -1 100 -20z m-110 -75 c-7 -8 -25 -15 -40 -15 -15 0 -33 7 -40 15 -11 13 -5 15 40 15 45 0 51 -2 40 -15z m110 -5 c0 -16 -7 -20 -30 -20 -23 0 -30 4 -30 20 0 16 7 20 30 20 23 0 30 -4 30 -20z m-130 -70 c0 -13 -7 -20 -20 -20 -13 0 -20 7 -20 20 0 13 7 20 20 20 13 0 20 -7 20 -20z m130 -10 c0 -16 -7 -20 -30 -20 -23 0 -30 4 -30 20 0 16 7 20 30 20 23 0 30 -4 30 -20z"/>
 </g>

</svg>