<?xml version="1.0" encoding="UTF-8"?>
<svg xmlns="http://www.w3.org/2000/svg" viewBox="0 0 48 48" width="48px" height="48px">
<g id="surface12502010">
<path style=" stroke:none;fill-rule:nonzero;fill:rgb(100%,100%,100%);fill-opacity:1;" d="M 40.605469 5.96875 C 40.027344 5.992188 39.496094 6.160156 39.03125 6.34375 C 38.601562 6.511719 37.054688 7.164062 34.59375 8.195312 C 32.132812 9.226562 28.871094 10.597656 25.394531 12.058594 C 18.441406 14.984375 10.628906 18.273438 6.625 19.957031 C 6.488281 20.015625 5.929688 20.183594 5.3125 20.65625 C 4.695312 21.128906 4.007812 22.152344 4.007812 23.273438 C 4.007812 24.175781 4.460938 25.097656 5.003906 25.625 C 5.546875 26.152344 6.101562 26.398438 6.5625 26.582031 C 7.914062 27.121094 12.085938 28.785156 13.898438 29.511719 C 14.535156 31.414062 16.027344 35.898438 16.375 37.003906 L 16.371094 37.003906 C 16.65625 37.902344 16.933594 38.488281 17.316406 38.976562 C 17.507812 39.222656 17.738281 39.441406 18.019531 39.617188 C 18.128906 39.683594 18.246094 39.734375 18.367188 39.785156 C 18.382812 39.792969 18.402344 39.792969 18.417969 39.800781 L 18.371094 39.789062 C 18.40625 39.804688 18.4375 39.824219 18.472656 39.835938 C 18.53125 39.855469 18.570312 39.855469 18.648438 39.871094 C 18.921875 39.957031 19.195312 40.011719 19.449219 40.011719 C 20.535156 40.011719 21.203125 39.421875 21.203125 39.421875 L 21.246094 39.390625 L 25.941406 35.417969 L 31.691406 40.734375 C 31.792969 40.878906 32.617188 41.996094 34.523438 41.996094 C 35.660156 41.996094 36.5625 41.4375 37.136719 40.847656 C 37.710938 40.257812 38.070312 39.652344 38.230469 38.835938 L 38.230469 38.824219 C 38.34375 38.242188 43.863281 10.53125 43.863281 10.53125 L 43.851562 10.578125 C 44.023438 9.8125 44.074219 9.074219 43.871094 8.320312 C 43.667969 7.566406 43.121094 6.832031 42.464844 6.445312 C 41.808594 6.058594 41.183594 5.945312 40.605469 5.96875 Z M 39.816406 10.347656 C 39.597656 11.4375 34.6875 36.121094 34.367188 37.757812 L 28.65625 32.480469 C 27.183594 31.121094 24.890625 31.070312 23.359375 32.363281 L 20.445312 34.828125 L 22 28.75 C 22 28.75 32.726562 17.894531 33.371094 17.261719 C 33.890625 16.753906 34 16.578125 34 16.402344 C 34 16.167969 33.878906 16 33.601562 16 C 33.351562 16 33.011719 16.238281 32.832031 16.351562 C 30.535156 17.785156 20.699219 23.386719 15.9375 26.097656 C 15.757812 25.992188 15.582031 25.878906 15.386719 25.800781 C 13.824219 25.175781 10.820312 23.972656 9.0625 23.269531 C 13.210938 21.523438 20.324219 18.53125 26.945312 15.746094 C 30.421875 14.285156 33.683594 12.914062 36.140625 11.882812 C 38.214844 11.011719 39.300781 10.5625 39.816406 10.347656 Z M 34.304688 38.046875 L 34.308594 38.046875 C 34.308594 38.046875 34.304688 38.0625 34.304688 38.0625 C 34.308594 38.046875 34.300781 38.058594 34.304688 38.046875 Z M 34.304688 38.046875 "/>
</g>
</svg>
