<!DOCTYPE svg PUBLIC "-//W3C//DTD SVG 20010904//EN" "http://www.w3.org/TR/2001/REC-SVG-20010904/DTD/svg10.dtd">
<svg version="1.0" xmlns="http://www.w3.org/2000/svg" width="48px" height="48px" viewBox="0 0 480 480" preserveAspectRatio="xMidYMid meet">
<g id="layer101" fill="#9c9da1" stroke="none">
 <path d="M40 420 c0 -19 7 -20 200 -20 193 0 200 1 200 20 0 19 -7 20 -200 20 -193 0 -200 -1 -200 -20z"/>
 <path d="M175 280 l-59 -60 42 0 42 0 0 -90 0 -90 40 0 40 0 0 90 0 90 42 0 42 0 -59 60 c-33 33 -62 60 -65 60 -3 0 -32 -27 -65 -60z"/>
 </g>

</svg>