<?xml version="1.0" encoding="UTF-8"?>
<svg xmlns="http://www.w3.org/2000/svg" xmlns:xlink="http://www.w3.org/1999/xlink" width="48pt" height="48pt" viewBox="0 0 48 48" version="1.1">
<g id="surface89656">
<path style=" stroke:none;fill-rule:nonzero;fill:rgb(100%,100%,100%);fill-opacity:1;" d="M 42 6 L 6 6 L 6 42 L 42 42 Z M 18 34 L 12.953125 34 L 12.953125 20 L 18 20 Z M 15.386719 17.433594 C 13.847656 17.433594 12.816406 16.40625 12.816406 15.035156 C 12.816406 13.660156 13.84375 12.632812 15.558594 12.632812 C 17.101562 12.632812 18.128906 13.660156 18.128906 15.035156 C 18.128906 16.40625 17.101562 17.433594 15.386719 17.433594 Z M 36 34 L 31.117188 34 L 31.117188 26.347656 C 31.117188 24.230469 29.8125 23.742188 29.324219 23.742188 C 28.839844 23.742188 27.210938 24.070312 27.210938 26.347656 C 27.210938 26.675781 27.210938 34 27.210938 34 L 22.164062 34 L 22.164062 20 L 27.210938 20 L 27.210938 21.953125 C 27.859375 20.8125 29.160156 20 31.605469 20 C 34.046875 20 36 21.953125 36 26.347656 Z M 36 34 "/>
</g>
</svg>
