<!DOCTYPE svg PUBLIC "-//W3C//DTD SVG 20010904//EN" "http://www.w3.org/TR/2001/REC-SVG-20010904/DTD/svg10.dtd">
<svg version="1.0" xmlns="http://www.w3.org/2000/svg" width="48px" height="48px" viewBox="0 0 480 480" preserveAspectRatio="xMidYMid meet">
<g id="layer101" fill="#9c9da1" stroke="none">
 <path d="M100 433 c1 -5 7 -35 15 -68 8 -33 15 -65 15 -71 0 -6 -27 -34 -60 -61 -32 -28 -56 -53 -53 -57 4 -3 28 -6 53 -6 95 0 103 -5 134 -81 16 -38 32 -69 36 -69 4 0 20 31 36 69 31 76 39 81 134 81 25 0 49 3 53 6 3 4 -21 29 -53 57 -33 27 -60 55 -60 61 0 6 7 40 15 75 9 35 13 66 11 69 -3 3 -33 -12 -66 -32 -34 -20 -65 -36 -70 -36 -5 0 -35 16 -67 35 -59 36 -73 41 -73 28z"/>
 </g>

</svg>